<svg id="_x33_0" enable-background="new 0 0 64 64" height="512" viewBox="0 0 64 64" width="512" xmlns="http://www.w3.org/2000/svg"><g><path d="m56.242 8.591c.446.112.758.511.758.971v4.203c0 .381-.212.724-.553.894l-1.447.723v1.001 1.001.235 1.001l1.447.723c.341.169.553.512.553.893v2.764h2v-2.764c0-1.143-.635-2.171-1.658-2.683l-1.106-.553 1.105-.553c1.024-.511 1.659-1.54 1.659-2.683v-4.202c0-1.379-.935-2.576-2.272-2.911l-1.728-.432v2.062z"/><path d="m19 51h14.515c1.245 0 2.436.329 3.485.934v-23.511c-.939-.915-2.172-1.423-3.485-1.423h-14.515zm16-10h-8v-2h8zm-13-11h12v6h-12zm-1 9h4v2h-4zm0 4h14v2h-14zm0 4h14v2h-14z"/><path d="m53 4c0-.551-.449-1-1-1h-4c-.551 0-1 .449-1 1v9h6z"/><path d="m26.956 7.937c.029-.079.044-.161.044-.244 0-.465-.497-.813-.937-.648l-6.258 2.347 4.804 4.804z"/><path d="m15 29v26h22v-.576c-.939-.916-2.172-1.424-3.485-1.424h-16.515v-24z"/><path d="m57 29h-2v4c0 .784-.458 1.458-1.117 1.786l-.757 4.543c-.161.968-.991 1.671-1.973 1.671h-.153v4h-2v-4h-.153c-.982 0-1.812-.703-1.973-1.672l-.757-4.543c-.659-.327-1.117-1.001-1.117-1.785v-4h-6v26h18zm-16 10h4v2h-4zm0 4h6v2h-6zm14 10h-14v-2h14zm0-4h-14v-2h14z"/><path d="m51.153 39 .667-4h-3.64l.667 4z"/><path d="m47 15h6.001v18h-6.001z"/><path d="m13 29c0-1.103.897-2 2-2h2c0-1.103.897-2 2-2h2v-2h-16v17c0 1.654 1.346 3 3 3h1v-12c0-1.103.897-2 2-2z"/><path d="m3 19h20.001v2h-20.001z"/><path d="m22.586 17 1-1-2.086-2.086-3.086 3.086z"/><path d="m59 31v24c0 1.103-.897 2-2 2h-42c-1.103 0-2-.897-2-2v-24h-2v28h24.618l.382.764c.381.762 1.147 1.236 2 1.236s1.619-.474 2-1.236l.382-.764h20.618v-28z"/><path d="m20.086 12.5-2.086-2.086-6.586 6.586h4.172z"/><path d="m11 14.586v-11.586h-6v2h4v2h-4v2h2v2h-2v2h4v2h-4v2h3.586z"/></g></svg>